# xmcd
#
# Track frame offsets:
#	150
#	12033
#	26813
#	39157
#	58357
#	73151
#	88857
#	102189
#	116952
#	132048
#	142474
#	157310
#	173314
#	185217
#	207611
#
# Disc length: 2951 seconds
#
# Revision: 1
# Processed by: cddbd v1.5.1PL0 Copyright (c) Steve Scherf et al.
# Submitted via: audiograbber 1.83.01
#
DISCID=e70b850f
DTITLE=Okemah - Geht auf's Land
DYEAR=2004
DGENRE=Country
TTITLE0=Good for nothing
TTITLE1=Wieder unterwegs
TTITLE2=Dann loch'n und wan' ma mitanand
TTITLE3=Schmuggler
TTITLE4=My sweetheart wake up
TTITLE5=Irgendwann
TTITLE6=Lok 97217
TTITLE7=Doppelt brennt
TTITLE8=Elfenberg
TTITLE9=I bin a Luada
TTITLE10=Obersteirer Blues
TTITLE11=Nuss'n und Äpfel
TTITLE12=Summamorgen
TTITLE13=Parkweg Serenade
TTITLE14=Olle Liada der Wö't
EXTD=
EXTT0=
EXTT1=
EXTT2=
EXTT3=
EXTT4=
EXTT5=
EXTT6=
EXTT7=
EXTT8=
EXTT9=
EXTT10=
EXTT11=
EXTT12=
EXTT13=
EXTT14=
PLAYORDER=
